<svg width="28" height="28" viewBox="0 0 28 28" fill="none" xmlns="http://www.w3.org/2000/svg">
<path d="M13.795 0C8.03758 0 6.35376 0.00593939 6.02646 0.0330909C4.84494 0.131303 4.10973 0.317333 3.30876 0.716121C2.69149 1.02264 2.20467 1.37794 1.72422 1.876C0.849216 2.7843 0.318912 3.90176 0.126943 5.23006C0.0336094 5.87491 0.00645791 6.00642 0.000942761 9.30024C-0.00117845 10.3982 0.000942761 11.8432 0.000942761 13.7813C0.000942761 19.534 0.0073064 21.2162 0.0348822 21.5428C0.130337 22.6925 0.31064 23.4158 0.692458 24.2071C1.42215 25.7216 2.81579 26.8586 4.45761 27.2828C5.02609 27.4292 5.65397 27.5098 6.46003 27.548C6.80155 27.5628 10.2825 27.5734 13.7655 27.5734C17.2485 27.5734 20.7315 27.5692 21.0646 27.5522C21.9979 27.5083 22.5399 27.4355 23.1391 27.2807C24.7915 26.8543 26.1597 25.7343 26.9043 24.1986C27.2787 23.4265 27.4685 22.6755 27.5544 21.5859C27.5731 21.3483 27.5809 17.5605 27.5809 13.7777C27.5809 9.9943 27.5725 6.21345 27.5538 5.97588C27.4668 4.86861 27.277 4.12406 26.8905 3.33709C26.5734 2.69288 26.2212 2.21179 25.71 1.71988C24.7977 0.848485 23.6819 0.318182 22.3524 0.126424C21.7082 0.033303 21.5798 0.00572727 18.2835 0H13.795Z" fill="url(#paint0_radial_3_20)"/>
<path d="M13.795 0C8.03758 0 6.35376 0.00593939 6.02646 0.0330909C4.84494 0.131303 4.10973 0.317333 3.30876 0.716121C2.69149 1.02264 2.20467 1.37794 1.72422 1.876C0.849216 2.7843 0.318912 3.90176 0.126943 5.23006C0.0336094 5.87491 0.00645791 6.00642 0.000942761 9.30024C-0.00117845 10.3982 0.000942761 11.8432 0.000942761 13.7813C0.000942761 19.534 0.0073064 21.2161 0.0348822 21.5428C0.130337 22.6925 0.31064 23.4158 0.692458 24.2071C1.42215 25.7216 2.81579 26.8586 4.45761 27.2828C5.02609 27.4292 5.65397 27.5098 6.46003 27.548C6.80155 27.5628 10.2825 27.5734 13.7655 27.5734C17.2485 27.5734 20.7315 27.5692 21.0646 27.5522C21.9979 27.5083 22.5399 27.4355 23.1391 27.2807C24.7915 26.8543 26.1597 25.7343 26.9043 24.1986C27.2787 23.4265 27.4685 22.6755 27.5544 21.5859C27.5731 21.3483 27.5809 17.5605 27.5809 13.7777C27.5809 9.9943 27.5725 6.21345 27.5538 5.97588C27.4668 4.86861 27.277 4.12406 26.8905 3.33709C26.5734 2.69288 26.2212 2.21179 25.71 1.71988C24.7977 0.848485 23.6819 0.318182 22.3524 0.126424L22.3167 0.121267C21.7022 0.032279 21.5182 0.00562013 18.2835 0H13.795Z" fill="#54BD95"/>
<path d="M13.7886 3.60605C11.0234 3.60605 10.6764 3.61814 9.59032 3.66756C8.50638 3.7172 7.7665 3.88881 7.11911 4.14059C6.44944 4.40065 5.88138 4.74853 5.31544 5.31468C4.74908 5.88062 4.4012 6.44868 4.14029 7.11814C3.88787 7.76575 3.71605 8.50584 3.66726 9.58935C3.61868 10.6754 3.60596 11.0227 3.60596 13.7879C3.60596 16.5531 3.61826 16.899 3.66747 17.9851C3.71732 19.069 3.88893 19.8089 4.1405 20.4563C4.40078 21.126 4.74865 21.694 5.31481 22.26C5.88053 22.8264 6.44859 23.1751 7.11784 23.4351C7.76565 23.6869 8.50575 23.8585 9.58947 23.9082C10.6755 23.9576 11.0224 23.9697 13.7874 23.9697C16.5528 23.9697 16.8987 23.9576 17.9848 23.9082C19.0687 23.8585 19.8095 23.6869 20.4573 23.4351C21.1267 23.1751 21.694 22.8264 22.2597 22.26C22.826 21.694 23.1739 21.126 23.4348 20.4565C23.6851 19.8089 23.857 19.0688 23.9079 17.9853C23.9567 16.8993 23.9694 16.5531 23.9694 13.7879C23.9694 11.0227 23.9567 10.6756 23.9079 9.58956C23.857 8.50562 23.6851 7.76575 23.4348 7.11835C23.1739 6.44868 22.826 5.88062 22.2597 5.31468C21.6933 4.74832 21.127 4.40044 20.4567 4.14059C19.8076 3.88881 19.0673 3.7172 17.9833 3.66756C16.8973 3.61814 16.5515 3.60605 13.7854 3.60605H13.7886ZM12.8752 5.4409C13.1463 5.44047 13.4488 5.4409 13.7886 5.4409C16.5072 5.4409 16.8294 5.45065 17.9029 5.49944C18.8957 5.54484 19.4344 5.71072 19.7934 5.85008C20.2685 6.03462 20.6073 6.25523 20.9634 6.61159C21.3198 6.96796 21.5404 7.30735 21.7254 7.7825C21.8647 8.14099 22.0308 8.67978 22.076 9.6725C22.1248 10.7458 22.1354 11.0683 22.1354 13.7855C22.1354 16.5028 22.1248 16.8252 22.076 17.8986C22.0306 18.8913 21.8647 19.4301 21.7254 19.7886C21.5408 20.2637 21.3198 20.602 20.9634 20.9582C20.607 21.3146 20.2687 21.5352 19.7934 21.7197C19.4349 21.8597 18.8957 22.0252 17.9029 22.0706C16.8296 22.1194 16.5072 22.13 13.7886 22.13C11.0699 22.13 10.7477 22.1194 9.67432 22.0706C8.68159 22.0247 8.14281 21.8589 7.78368 21.7195C7.30853 21.535 6.96914 21.3144 6.61278 20.958C6.25641 20.6016 6.03581 20.2631 5.85084 19.7877C5.71147 19.4292 5.54538 18.8904 5.5002 17.8977C5.45141 16.8244 5.44165 16.502 5.44165 13.783C5.44165 11.064 5.45141 10.7433 5.5002 9.66996C5.54559 8.67723 5.71147 8.13844 5.85084 7.77953C6.03538 7.30438 6.25641 6.96499 6.61278 6.60862C6.96914 6.25226 7.30853 6.03165 7.78368 5.84668C8.14259 5.70668 8.68159 5.54123 9.67432 5.49562C10.6136 5.4532 10.9776 5.44047 12.8752 5.43835V5.4409ZM19.2236 7.1315C18.549 7.1315 18.0018 7.67814 18.0018 8.3529C18.0018 9.02744 18.549 9.57472 19.2236 9.57472C19.8981 9.57472 20.4454 9.02744 20.4454 8.3529C20.4454 7.67835 19.8981 7.13108 19.2236 7.13108V7.1315ZM13.7886 8.55908C10.901 8.55908 8.55984 10.9003 8.55984 13.7879C8.55984 16.6755 10.901 19.0156 13.7886 19.0156C16.6762 19.0156 19.0166 16.6755 19.0166 13.7879C19.0166 10.9003 16.6762 8.55908 13.7886 8.55908ZM13.7886 10.3939C15.6629 10.3939 17.1826 11.9134 17.1826 13.7879C17.1826 15.6622 15.6629 17.1818 13.7886 17.1818C11.9141 17.1818 10.3947 15.6622 10.3947 13.7879C10.3947 11.9134 11.9141 10.3939 13.7886 10.3939Z" fill="white"/>
<defs>
<radialGradient id="paint0_radial_3_20" cx="0" cy="0" r="1" gradientUnits="userSpaceOnUse" gradientTransform="translate(7.32622 29.6972) rotate(-90) scale(27.3273 25.4235)">
<stop stop-color="#FFDD55"/>
<stop offset="0.1" stop-color="#FFDD55"/>
<stop offset="0.5" stop-color="#FF543E"/>
<stop offset="1" stop-color="#C837AB"/>
</radialGradient>
</defs>
</svg>
