<svg width="26" height="26" viewBox="0 0 26 26" fill="none" xmlns="http://www.w3.org/2000/svg">
<path d="M16.0028 19C13.6167 18.9974 11.329 18.0483 9.64182 16.361C7.95454 14.6738 7.00548 12.3861 7.00283 10C7.00264 9.3064 7.24279 8.63416 7.68241 8.09768C8.12204 7.5612 8.73397 7.19362 9.41408 7.0575L10.8491 9.9325L9.62782 11.75C9.53662 11.8869 9.4805 12.0442 9.46458 12.2079C9.44867 12.3717 9.4734 12.5368 9.53662 12.6888C10.252 14.3892 11.6048 15.742 13.3053 16.4575C13.4577 16.5235 13.6241 16.5505 13.7895 16.5361C13.9549 16.5217 14.1141 16.4663 14.2528 16.375L16.0791 15.1575L18.9541 16.5925C18.8169 17.2734 18.4477 17.8856 17.9095 18.3247C17.3713 18.7637 16.6974 19.0024 16.0028 19Z" fill="white"/>
<path fill-rule="evenodd" clip-rule="evenodd" d="M20.4503 15.105L16.4503 13.105C16.2929 13.0265 16.1175 12.991 15.9419 13.002C15.7663 13.0129 15.5968 13.07 15.4503 13.1675L13.6141 14.3925C12.7711 13.9291 12.0775 13.2354 11.6141 12.3925L12.8391 10.5562C12.9365 10.4098 12.9936 10.2402 13.0046 10.0646C13.0156 9.88907 12.98 9.7137 12.9016 9.55625L10.9016 5.55625C10.8187 5.38884 10.6905 5.248 10.5317 5.14968C10.3728 5.05137 10.1896 4.99952 10.0028 5C8.67675 5 7.40498 5.52678 6.4673 6.46447C5.52962 7.40215 5.00283 8.67392 5.00283 10C5.00614 12.9164 6.16613 15.7123 8.22831 17.7745C10.2905 19.8367 13.0864 20.9967 16.0028 21C16.6594 21 17.3096 20.8707 17.9162 20.6194C18.5229 20.3681 19.0741 19.9998 19.5383 19.5355C20.0026 19.0712 20.3709 18.52 20.6222 17.9134C20.8735 17.3068 21.0028 16.6566 21.0028 16C21.0029 15.8142 20.9513 15.6321 20.8537 15.474C20.7562 15.3159 20.6165 15.1881 20.4503 15.105ZM9.64182 16.361C11.329 18.0483 13.6167 18.9974 16.0028 19C16.6974 19.0024 17.3713 18.7637 17.9095 18.3247C18.4477 17.8856 18.8169 17.2734 18.9541 16.5925L16.0791 15.1575L14.2528 16.375C14.1141 16.4663 13.9549 16.5217 13.7895 16.5361C13.6241 16.5505 13.4577 16.5235 13.3053 16.4575C11.6048 15.742 10.252 14.3892 9.53662 12.6888C9.4734 12.5368 9.44867 12.3717 9.46458 12.2079C9.4805 12.0442 9.53662 11.8869 9.62782 11.75L10.8491 9.9325L9.41408 7.0575C8.73397 7.19362 8.12204 7.5612 7.68241 8.09768C7.24279 8.63416 7.00264 9.3064 7.00283 10C7.00548 12.3861 7.95454 14.6738 9.64182 16.361Z" fill="#54BD95"/>
<path fill-rule="evenodd" clip-rule="evenodd" d="M13.0028 24C11.069 24.0013 9.16921 23.4921 7.49533 22.5238C7.37278 22.4527 7.23652 22.4085 7.09558 22.394C6.95465 22.3796 6.81226 22.3953 6.67783 22.44L2.00283 24L3.56158 19.325C3.60652 19.1907 3.6224 19.0483 3.60817 18.9074C3.59395 18.7665 3.54995 18.6301 3.47908 18.5075C2.26655 16.4111 1.77972 13.9732 2.09412 11.572C2.40852 9.17068 3.50658 6.94027 5.21794 5.22674C6.92931 3.51321 9.15833 2.41234 11.5592 2.0949C13.9601 1.77747 16.3986 2.26122 18.4965 3.47111C20.5944 4.68099 22.2343 6.54939 23.162 8.78644C24.0897 11.0235 24.2532 13.5042 23.6271 15.8436C23.0011 18.1831 21.6205 20.2505 19.6995 21.7253C17.7785 23.2 15.4246 23.9996 13.0028 24ZM16.4503 13.105L20.4503 15.105C20.6165 15.1881 20.7562 15.3159 20.8537 15.474C20.9513 15.6321 21.0029 15.8142 21.0028 16C21.0028 16.6566 20.8735 17.3068 20.6222 17.9134C20.3709 18.52 20.0026 19.0712 19.5383 19.5355C19.0741 19.9998 18.5229 20.3681 17.9162 20.6194C17.3096 20.8707 16.6594 21 16.0028 21C13.0864 20.9967 10.2905 19.8367 8.22831 17.7745C6.16613 15.7123 5.00614 12.9164 5.00283 10C5.00283 8.67392 5.52962 7.40215 6.4673 6.46447C7.40498 5.52678 8.67675 5 10.0028 5C10.1896 4.99952 10.3728 5.05137 10.5317 5.14968C10.6905 5.248 10.8187 5.38884 10.9016 5.55625L12.9016 9.55625C12.98 9.7137 13.0156 9.88907 13.0046 10.0646C12.9936 10.2402 12.9365 10.4098 12.8391 10.5562L11.6141 12.3925C12.0775 13.2354 12.7711 13.9291 13.6141 14.3925L15.4503 13.1675C15.5968 13.07 15.7663 13.0129 15.9419 13.002C16.1175 12.991 16.2929 13.0265 16.4503 13.105Z" fill="#54BD95"/>
<path fill-rule="evenodd" clip-rule="evenodd" d="M13.0028 3.09595e-07C10.7584 -0.000489452 8.55211 0.58011 6.59865 1.68529C4.64519 2.79046 3.01114 4.38256 1.85555 6.30662C0.699963 8.23069 0.0621894 10.4212 0.00432243 12.6648C-0.0535446 14.9085 0.470461 17.1289 1.52533 19.11L0.106587 23.3662C-0.0109316 23.7186 -0.0279866 24.0968 0.0573344 24.4583C0.142656 24.8199 0.326981 25.1505 0.589653 25.4132C0.852324 25.6759 1.18295 25.8602 1.54449 25.9455C1.90603 26.0308 2.28419 26.0138 2.63658 25.8962L6.89283 24.4775C8.6363 25.4048 10.5681 25.9228 12.5416 25.992C14.5151 26.0613 16.4785 25.68 18.2826 24.8772C20.0868 24.0743 21.6844 22.871 22.9541 21.3586C24.2238 19.8462 25.1322 18.0644 25.6105 16.1484C26.0887 14.2325 26.1242 12.2328 25.7142 10.301C25.3043 8.36934 24.4596 6.55642 23.2444 4.9999C22.0291 3.44337 20.4752 2.18415 18.7007 1.31782C16.9261 0.451486 14.9775 0.000810288 13.0028 3.09595e-07ZM7.49533 22.5238C9.16921 23.4921 11.069 24.0013 13.0028 24C15.4246 23.9996 17.7785 23.2 19.6995 21.7253C21.6205 20.2505 23.0011 18.1831 23.6271 15.8436C24.2532 13.5042 24.0897 11.0235 23.162 8.78644C22.2343 6.54939 20.5944 4.68099 18.4965 3.47111C16.3986 2.26122 13.9601 1.77747 11.5592 2.0949C9.15833 2.41234 6.92931 3.51321 5.21794 5.22674C3.50658 6.94027 2.40852 9.17068 2.09412 11.572C1.77972 13.9732 2.26655 16.4111 3.47908 18.5075C3.54995 18.6301 3.59395 18.7665 3.60817 18.9074C3.6224 19.0483 3.60652 19.1907 3.56158 19.325L2.00283 24L6.67783 22.44C6.81226 22.3953 6.95465 22.3796 7.09558 22.394C7.23652 22.4085 7.37278 22.4527 7.49533 22.5238Z" fill="white"/>
</svg>
