<svg width="27" height="26" viewBox="0 0 27 26" fill="none" xmlns="http://www.w3.org/2000/svg">
<path d="M20.9513 15.105L16.9513 13.105C16.7939 13.0265 16.6185 12.991 16.4429 13.002C16.2673 13.0129 16.0978 13.07 15.9513 13.1675L14.1151 14.3925C13.2721 13.9291 12.5785 13.2354 12.1151 12.3925L13.3401 10.5562C13.4375 10.4098 13.4946 10.2402 13.5056 10.0646C13.5166 9.88907 13.481 9.7137 13.4026 9.55625L11.4026 5.55625C11.3197 5.38884 11.1915 5.248 11.0327 5.14968C10.8738 5.05137 10.6906 4.99952 10.5038 5C9.17773 5 7.90596 5.52678 6.96828 6.46447C6.0306 7.40215 5.50381 8.67392 5.50381 10C5.50712 12.9164 6.66711 15.7123 8.72929 17.7745C10.7915 19.8367 13.5874 20.9967 16.5038 21C17.1604 21 17.8106 20.8707 18.4172 20.6194C19.0239 20.3681 19.5751 19.9998 20.0393 19.5355C20.5036 19.0712 20.8719 18.52 21.1232 17.9134C21.3745 17.3068 21.5038 16.6566 21.5038 16C21.5039 15.8142 21.4523 15.6321 21.3547 15.474C21.2572 15.3159 21.1175 15.1881 20.9513 15.105ZM16.5038 19C14.1177 18.9974 11.83 18.0483 10.1428 16.361C8.45552 14.6738 7.50646 12.3861 7.50381 10C7.50362 9.3064 7.74377 8.63416 8.18339 8.09768C8.62302 7.5612 9.23495 7.19362 9.91506 7.0575L11.3501 9.9325L10.1288 11.75C10.0376 11.8869 9.98148 12.0442 9.96556 12.2079C9.94965 12.3717 9.97438 12.5368 10.0376 12.6888C10.753 14.3892 12.1058 15.742 13.8063 16.4575C13.9587 16.5235 14.1251 16.5505 14.2905 16.5361C14.4559 16.5217 14.6151 16.4663 14.7538 16.375L16.5801 15.1575L19.4551 16.5925C19.3179 17.2734 18.9487 17.8856 18.4105 18.3247C17.8723 18.7637 17.1984 19.0024 16.5038 19ZM13.5038 3.09594e-07C11.2594 -0.000489452 9.05309 0.58011 7.09963 1.68529C5.14617 2.79046 3.51212 4.38256 2.35653 6.30662C1.20094 8.23069 0.563166 10.4212 0.505299 12.6648C0.447432 14.9085 0.971438 17.1289 2.02631 19.11L0.607564 23.3662C0.490045 23.7186 0.47299 24.0968 0.558311 24.4583C0.643633 24.8199 0.827958 25.1505 1.09063 25.4132C1.3533 25.6759 1.68393 25.8602 2.04547 25.9455C2.40701 26.0308 2.78517 26.0138 3.13756 25.8962L7.39381 24.4775C9.13728 25.4048 11.0691 25.9228 13.0426 25.992C15.0161 26.0613 16.9795 25.68 18.7836 24.8772C20.5878 24.0743 22.1854 22.871 23.4551 21.3586C24.7248 19.8462 25.6332 18.0644 26.1115 16.1484C26.5897 14.2325 26.6252 12.2328 26.2152 10.301C25.8053 8.36934 24.9606 6.55642 23.7454 4.9999C22.5301 3.44337 20.9762 2.18415 19.2017 1.31782C17.4271 0.451486 15.4785 0.000810288 13.5038 3.09594e-07ZM13.5038 24C11.57 24.0013 9.67019 23.4921 7.99631 22.5238C7.87376 22.4527 7.7375 22.4085 7.59656 22.394C7.45563 22.3796 7.31324 22.3953 7.17881 22.44L2.50381 24L4.06256 19.325C4.1075 19.1907 4.12338 19.0483 4.10915 18.9074C4.09493 18.7665 4.05093 18.6301 3.98006 18.5075C2.76753 16.4111 2.2807 13.9732 2.5951 11.572C2.9095 9.17068 4.00756 6.94027 5.71892 5.22674C7.43029 3.51321 9.65931 2.41234 12.0602 2.0949C14.4611 1.77747 16.8996 2.26122 18.9975 3.47111C21.0954 4.68099 22.7353 6.54939 23.663 8.78644C24.5907 11.0235 24.7542 13.5042 24.1281 15.8436C23.5021 18.1831 22.1215 20.2505 20.2005 21.7253C18.2795 23.2 15.9256 23.9996 13.5038 24Z" fill="white"/>
</svg>
